<svg width="20" height="20" viewBox="0 0 20 20" fill="none" xmlns="http://www.w3.org/2000/svg">
<g clip-path="url(#clip0_14_3925)">
<path d="M8.74455 17.0728L17.0728 8.74455C17.462 8.36318 17.7717 7.90844 17.984 7.40664C18.1963 6.90483 18.307 6.36591 18.3098 5.82104C18.3126 5.27617 18.2073 4.73616 18 4.23224C17.7928 3.72831 17.4877 3.27047 17.1024 2.88518C16.7171 2.4999 16.2593 2.19481 15.7553 1.98757C15.2514 1.78032 14.7114 1.67504 14.1665 1.67779C13.6217 1.68054 13.0828 1.79128 12.5809 2.0036C12.0791 2.21592 11.6244 2.52562 11.243 2.91478L2.91478 11.243C2.52562 11.6244 2.21592 12.0791 2.0036 12.5809C1.79128 13.0828 1.68054 13.6217 1.67779 14.1665C1.67504 14.7114 1.78032 15.2514 1.98757 15.7553C2.19481 16.2593 2.4999 16.7171 2.88518 17.1024C3.27047 17.4877 3.72831 17.7928 4.23224 18C4.73616 18.2073 5.27617 18.3126 5.82104 18.3098C6.36591 18.307 6.90483 18.1963 7.40664 17.984C7.90844 17.7717 8.36318 17.462 8.74455 17.0728Z" stroke="#99A1AF" stroke-width="1.66565" stroke-linecap="round" stroke-linejoin="round"/>
<path d="M7.0791 7.0791L12.9089 12.9089" stroke="#99A1AF" stroke-width="1.66565" stroke-linecap="round" stroke-linejoin="round"/>
</g>
<defs>
<clipPath id="clip0_14_3925">
<rect width="19.9878" height="19.9878" fill="white"/>
</clipPath>
</defs>
</svg>
