<svg width="20" height="20" viewBox="0 0 20 20" fill="none" xmlns="http://www.w3.org/2000/svg">
<path d="M12.659 2.49854C13.0984 2.50479 13.5174 2.6844 13.825 2.99823L16.9897 6.16297C17.3035 6.4705 17.4831 6.88958 17.4894 7.32892V15.8237C17.4894 16.2655 17.3139 16.6892 17.0015 17.0015C16.6892 17.3139 16.2655 17.4894 15.8237 17.4894H4.16419C3.72243 17.4894 3.29876 17.3139 2.98639 17.0015C2.67402 16.6892 2.49854 16.2655 2.49854 15.8237V4.16419C2.49854 3.72243 2.67402 3.29876 2.98639 2.98639C3.29876 2.67402 3.72243 2.49854 4.16419 2.49854H12.659Z" stroke="white" stroke-width="1.66565" stroke-linecap="round" stroke-linejoin="round"/>
<path d="M14.1578 17.4893V11.6595C14.1578 11.4386 14.0701 11.2268 13.9139 11.0706C13.7577 10.9144 13.5459 10.8267 13.325 10.8267H6.66242C6.44154 10.8267 6.2297 10.9144 6.07352 11.0706C5.91733 11.2268 5.82959 11.4386 5.82959 11.6595V17.4893" stroke="white" stroke-width="1.66565" stroke-linecap="round" stroke-linejoin="round"/>
<path d="M5.82959 2.49854V5.82984C5.82959 6.05072 5.91733 6.26255 6.07352 6.41873C6.2297 6.57492 6.44154 6.66266 6.66242 6.66266H12.4922" stroke="white" stroke-width="1.66565" stroke-linecap="round" stroke-linejoin="round"/>
</svg>
