<svg width="20" height="20" viewBox="0 0 20 20" fill="none" xmlns="http://www.w3.org/2000/svg">
<path d="M9.99396 2.49854H4.16419C3.72243 2.49854 3.29876 2.67402 2.98639 2.98639C2.67402 3.29876 2.49854 3.72243 2.49854 4.16419V15.8237C2.49854 16.2655 2.67402 16.6892 2.98639 17.0015C3.29876 17.3139 3.72243 17.4894 4.16419 17.4894H15.8237C16.2655 17.4894 16.6892 17.3139 17.0015 17.0015C17.3139 16.6892 17.4894 16.2655 17.4894 15.8237V9.99396" stroke="white" stroke-width="1.66565" stroke-linecap="round" stroke-linejoin="round"/>
<path d="M15.3031 2.1864C15.6344 1.85508 16.0838 1.66895 16.5523 1.66895C17.0209 1.66895 17.4702 1.85508 17.8016 2.1864C18.1329 2.51772 18.319 2.96708 18.319 3.43563C18.319 3.90419 18.1329 4.35355 17.8016 4.68487L10.2953 12.192C10.0975 12.3895 9.85324 12.5342 9.5849 12.6125L7.19219 13.3121C7.12052 13.333 7.04456 13.3343 6.97225 13.3157C6.89993 13.2972 6.83393 13.2596 6.78114 13.2068C6.72836 13.154 6.69073 13.088 6.67221 13.0157C6.65368 12.9434 6.65493 12.8674 6.67584 12.7958L7.37541 10.4031C7.45413 10.1349 7.59905 9.89091 7.79682 9.69349L15.3031 2.1864Z" stroke="white" stroke-width="1.66565" stroke-linecap="round" stroke-linejoin="round"/>
</svg>
